<svg width="100" height="100" viewBox="0 0 100 100" fill="none" xmlns="http://www.w3.org/2000/svg">
<path fill-rule="evenodd" clip-rule="evenodd" d="M30.4961 85.5L62.3711 53.6126C64.5553 51.4301 65.783 48.4692 65.7842 45.3815C65.7853 42.2937 64.5598 39.3319 62.3772 37.1477C60.1947 34.9635 57.2338 33.7358 54.1461 33.7346C51.0583 33.7335 48.0965 34.959 45.9123 37.1415L14.0084 69.0041C12.925 70.0867 12.0655 71.3721 11.4788 72.7869C10.8922 74.2017 10.5899 75.7182 10.5894 77.2498C10.5888 78.7814 10.8899 80.2981 11.4755 81.7133C12.0611 83.1285 12.9196 84.4146 14.0022 85.498C15.0848 86.5814 16.3702 87.4409 17.785 88.0276C19.1998 88.6142 20.7163 88.9165 22.2479 88.917C23.7795 88.9176 25.2962 88.6165 26.7114 88.0309C28.1266 87.4453 29.4127 86.5826 30.4961 85.5ZM45.8752 45.375L54.1252 53.625L58.2502 49.5C58.7919 48.9583 59.2216 48.3152 59.5148 47.6075C59.8079 46.8997 59.9588 46.1411 59.9588 45.375C59.9588 44.6089 59.8079 43.8504 59.5148 43.1426C59.2216 42.4348 58.7919 41.7917 58.2502 41.25C57.7085 40.7083 57.0654 40.2786 56.3576 39.9855C55.6498 39.6923 54.8913 39.5414 54.1252 39.5414C53.3591 39.5414 52.6005 39.6923 51.8927 39.9855C51.185 40.2786 50.5419 40.7083 50.0002 41.25L45.8752 45.375Z" fill="currentColor"/>
<path d="M28.3807 20.2002C28.653 19.1813 30.0967 19.1813 30.369 20.2002L31.8499 25.6782C31.8969 25.8521 31.9887 26.0106 32.1161 26.138C32.2435 26.2653 32.402 26.3571 32.5759 26.4042L38.0539 27.8809C39.0727 28.1532 39.0727 29.5969 38.0539 29.8692L32.5717 31.3501C32.3978 31.3971 32.2393 31.4889 32.112 31.6163C31.9846 31.7437 31.8928 31.9022 31.8457 32.0761L30.3649 37.5499C30.0926 38.5688 28.6489 38.5688 28.3766 37.5499L26.8999 32.0719C26.8528 31.8981 26.761 31.7395 26.6336 31.6122C26.5062 31.4848 26.3477 31.393 26.1739 31.3459L20.6917 29.8692C19.677 29.5969 19.677 28.1532 20.6917 27.8809L26.178 26.4001C26.3519 26.353 26.5104 26.2612 26.6377 26.1338C26.7651 26.0065 26.8569 25.8479 26.904 25.6741L28.3807 20.2002ZM69.6307 16.0752C69.903 15.0563 71.3467 15.0563 71.619 16.0752L73.0957 21.5532C73.1428 21.7271 73.2346 21.8856 73.362 22.013C73.4893 22.1403 73.6478 22.2321 73.8217 22.2792L79.2997 23.7559C80.3186 24.0282 80.3186 25.4719 79.2997 25.7442L73.8217 27.2209C73.6478 27.268 73.4893 27.3598 73.362 27.4872C73.2346 27.6145 73.1428 27.7731 73.0957 27.9469L71.619 33.4249C71.3467 34.4438 69.903 34.4438 69.6307 33.4249L68.1499 27.9469C68.1024 27.7726 68.01 27.6137 67.8819 27.4863C67.7537 27.3589 67.5944 27.2674 67.4197 27.2209L61.9417 25.7442C60.927 25.4719 60.927 24.0282 61.9417 23.7559L67.4197 22.2792C67.5944 22.2328 67.7537 22.1413 67.8819 22.0138C68.01 21.8864 68.1024 21.7276 68.1499 21.5532L69.6266 16.0752H69.6307ZM73.7557 53.2002C74.028 52.1813 75.4717 52.1813 75.744 53.2002L77.2207 58.6782C77.2678 58.8521 77.3596 59.0106 77.487 59.138C77.6143 59.2653 77.7728 59.3571 77.9467 59.4042L83.4247 60.8809C84.4436 61.1532 84.4436 62.5969 83.4247 62.8692L77.9467 64.3459C77.7728 64.393 77.6143 64.4848 77.487 64.6122C77.3596 64.7395 77.2678 64.8981 77.2207 65.0719L75.744 70.5499C75.4717 71.5688 74.028 71.5688 73.7557 70.5499L72.279 65.0719C72.2316 64.8976 72.1391 64.7387 72.011 64.6113C71.8829 64.4839 71.7235 64.3924 71.5489 64.3459L66.0709 62.8692C65.0561 62.5969 65.0561 61.1532 66.0709 60.8809L71.5489 59.4042C71.7235 59.3578 71.8829 59.2663 72.011 59.1388C72.1391 59.0114 72.2316 58.8526 72.279 58.6782L73.7557 53.2002Z" fill="#787878"/>
</svg>
