<svg width="100" height="100" viewBox="0 0 100 100" fill="none" xmlns="http://www.w3.org/2000/svg">
<rect x="32.5" y="23" width="36" height="31" fill="#787878"/>
<path fill-rule="evenodd" clip-rule="evenodd" d="M25.25 24.75C25.25 22.562 26.1192 20.4635 27.6664 18.9164C29.2135 17.3692 31.312 16.5 33.5 16.5H66.5C68.688 16.5 70.7865 17.3692 72.3336 18.9164C73.8808 20.4635 74.75 22.562 74.75 24.75V74.25C74.75 76.438 73.8808 78.5365 72.3336 80.0836C70.7865 81.6308 68.688 82.5 66.5 82.5H33.5C31.312 82.5 29.2135 81.6308 27.6664 80.0836C26.1192 78.5365 25.25 76.438 25.25 74.25V24.75ZM39.6462 72.5917L39.6504 72.5711L39.6669 72.4886C39.767 72.0058 39.8742 71.5245 39.9886 71.0449C40.2072 70.1044 40.5207 68.8586 40.892 67.6211C41.1807 66.6559 41.4942 65.7443 41.8077 65.01C42.1955 65.7896 42.6039 66.759 43.0453 67.8191L43.169 68.1244C43.6516 69.2917 44.1714 70.5458 44.6788 71.5275C44.9551 72.0555 45.2851 72.6206 45.6687 73.0744C45.974 73.4333 46.7413 74.25 47.9375 74.25C49.2823 74.25 50.165 73.4415 50.6517 72.8599C51.089 72.3319 51.4479 71.676 51.6954 71.2223L51.7531 71.1233C51.8523 70.9417 51.954 70.7615 52.0584 70.5829C52.145 70.7273 52.244 70.9046 52.3595 71.1191L52.4131 71.214C52.6606 71.6677 53.0236 72.3277 53.465 72.864C53.96 73.4497 54.8427 74.25 56.1875 74.25C57.2435 74.25 58.2789 73.7137 58.9513 73.326C59.7309 72.8722 60.5311 72.2947 61.2241 71.7502C62.033 71.1178 62.8174 70.4546 63.5754 69.762L63.7693 69.5805L63.7858 69.5681C64.1851 69.194 64.4194 68.6765 64.4372 68.1296C64.455 67.5827 64.2548 67.0511 63.8806 66.6518C63.5065 66.2524 62.989 66.0181 62.4421 66.0003C61.8952 65.9825 61.3636 66.1827 60.9642 66.5569L60.956 66.5651L60.923 66.5981L60.791 66.7177C60.1115 67.337 59.4098 67.9314 58.6872 68.4998C58.11 68.9591 57.5038 69.3808 56.8723 69.762C56.7073 69.8569 56.5711 69.927 56.4639 69.9806C56.2926 69.7026 56.1303 69.4192 55.9771 69.1309L55.9524 69.0896C55.6358 68.4741 55.2556 67.8934 54.818 67.3571C54.4855 66.9437 54.0665 66.608 53.5905 66.3735C53.1145 66.1391 52.593 66.0116 52.0625 66C50.7425 66 49.8391 66.7425 49.307 67.3489C48.812 67.9181 48.4242 68.6153 48.1602 69.0896L48.119 69.1721C47.7601 68.4296 47.3765 67.5098 46.9599 66.495L46.8567 66.2434C46.3509 64.9609 45.7767 63.7065 45.1366 62.4855C44.8356 61.9168 44.4672 61.3863 44.0394 60.9056C43.6516 60.4931 42.8761 59.8125 41.75 59.8125C40.6115 59.8125 39.836 60.5055 39.4483 60.9386C39.0151 61.4212 38.6686 62.0111 38.3922 62.5639C37.8038 63.8148 37.3182 65.1116 36.9402 66.4414C36.4193 68.1894 35.9748 69.9594 35.6079 71.7461V71.7709L35.6038 71.7791C35.5128 72.3083 35.6318 72.8521 35.9354 73.295C36.2391 73.7378 36.7035 74.0448 37.23 74.1506C37.7564 74.2564 38.3033 74.1528 38.7546 73.8617C39.2058 73.5706 39.5257 73.115 39.6462 72.5917ZM37.625 26.9775C37.078 26.9775 36.5534 27.1948 36.1666 27.5816C35.7798 27.9684 35.5625 28.493 35.5625 29.04C35.5625 29.587 35.7798 30.1116 36.1666 30.4984C36.5534 30.8852 37.078 31.1025 37.625 31.1025H62.375C62.922 31.1025 63.4466 30.8852 63.8334 30.4984C64.2202 30.1116 64.4375 29.587 64.4375 29.04C64.4375 28.493 64.2202 27.9684 63.8334 27.5816C63.4466 27.1948 62.922 26.9775 62.375 26.9775H37.625ZM35.5625 38.1562C35.5625 37.6092 35.7798 37.0846 36.1666 36.6978C36.5534 36.311 37.078 36.0938 37.625 36.0938H62.375C62.922 36.0938 63.4466 36.311 63.8334 36.6978C64.2202 37.0846 64.4375 37.6092 64.4375 38.1562C64.4375 38.7033 64.2202 39.2279 63.8334 39.6147C63.4466 40.0015 62.922 40.2188 62.375 40.2188H37.625C37.078 40.2188 36.5534 40.0015 36.1666 39.6147C35.7798 39.2279 35.5625 38.7033 35.5625 38.1562ZM37.625 45.375C37.078 45.375 36.5534 45.5923 36.1666 45.9791C35.7798 46.3659 35.5625 46.8905 35.5625 47.4375C35.5625 47.9845 35.7798 48.5091 36.1666 48.8959C36.5534 49.2827 37.078 49.5 37.625 49.5H62.375C62.922 49.5 63.4466 49.2827 63.8334 48.8959C64.2202 48.5091 64.4375 47.9845 64.4375 47.4375C64.4375 46.8905 64.2202 46.3659 63.8334 45.9791C63.4466 45.5923 62.922 45.375 62.375 45.375H37.625Z" fill="currentColor"/>
</svg>
