<svg width="100" height="100" viewBox="0 0 100 100" fill="none" xmlns="http://www.w3.org/2000/svg">
<path d="M46.5 49.75C57.1315 49.75 65.75 58.3685 65.75 69C65.75 79.6315 57.1315 88.25 46.5 88.25C35.8685 88.25 27.25 79.6315 27.25 69C27.25 58.3685 35.8685 49.75 46.5 49.75Z" fill="#787878"/>
<path d="M75.848 21.2751C76.6432 21.0699 77.4804 21.145 78.222 21.4792L78.2425 21.4587L78.5756 21.655C79.3962 22.1391 79.9917 22.9296 80.2298 23.8522C80.4678 24.7749 80.33 25.7551 79.8461 26.5758L50.6117 76.0758C50.3361 76.5415 49.9588 76.9404 49.5082 77.2399C49.0574 77.5395 48.5443 77.7335 48.0082 77.8073C47.472 77.881 46.9254 77.8325 46.4105 77.6657C45.8957 77.4989 45.4246 77.2175 45.0336 76.8434L24.7601 57.443C24.0717 56.7837 23.6725 55.8775 23.6517 54.9245C23.6311 53.9712 23.9903 53.0488 24.6498 52.36C25.3093 51.6713 26.215 51.2723 27.1683 51.2516C28.1216 51.231 29.0441 51.5902 29.7328 52.2497L46.7259 68.5231L73.6507 22.9284C74.1349 22.1077 74.9254 21.5132 75.848 21.2751Z" fill="currentColor"/>
</svg>
