<svg width="32" height="32" viewBox="0 0 32 32" fill="none" xmlns="http://www.w3.org/2000/svg">
<path fill-rule="evenodd" clip-rule="evenodd" d="M23 2.5C23.5523 2.5 24 2.94772 24 3.5V6H25C26.6569 6 28 7.34315 28 9V25C28 26.6569 26.6569 28 25 28H7C5.34315 28 4 26.6569 4 25V9C4 7.34315 5.34315 6 7 6H8V3.5C8 2.94772 8.44772 2.5 9 2.5C9.55228 2.5 10 2.94772 10 3.5V6H22V3.5C22 2.94772 22.4477 2.5 23 2.5ZM6 13.5V25C6 25.5523 6.44772 26 7 26H25C25.5523 26 26 25.5523 26 25V13.5H6ZM7 8C6.44772 8 6 8.44772 6 9V11.5H26V9C26 8.44771 25.5523 8 25 8H7Z" fill="currentColor"/>
</svg>
