<svg width="32" height="32" viewBox="0 0 32 32" fill="none" xmlns="http://www.w3.org/2000/svg">
<path d="M14.8966 13.5564C15.1413 13.0209 15.774 12.7848 16.3097 13.0291C16.8455 13.2736 17.0823 13.9063 16.838 14.4421L14.3751 19.8357L16.5441 24.4441L17.5568 21.3376C17.9095 22.1998 18.4185 22.9807 19.048 23.6472L17.7394 27.6628C17.6038 28.0786 17.2276 28.3699 16.7911 28.3972C16.3548 28.4243 15.946 28.1824 15.7599 27.7869L12.2345 20.2976C12.1011 20.0141 12.0997 19.6853 12.2296 19.4001L14.8966 13.5564ZM23.1476 6.01636C23.4875 5.95601 23.8396 6.0638 24.088 6.31226C24.3364 6.56076 24.4443 6.91277 24.3839 7.25269L24.3488 7.39624L23.132 11.1257C22.2049 11.2966 21.3375 11.6369 20.5636 12.115L21.6681 8.7312L5.95422 13.8552L11.0109 16.2341L11.1075 16.2859C11.5707 16.5644 11.7576 17.1545 11.5226 17.6541C11.2873 18.1538 10.7132 18.3856 10.2032 18.2058L10.1027 18.1648L2.6134 14.6404C2.2179 14.4543 1.97512 14.0454 2.00208 13.6091C2.0293 13.1728 2.32087 12.7966 2.73645 12.6609L23.004 6.05151L23.1476 6.01636Z" fill="currentColor"/>
<path d="M28.1667 18.5C28.1667 16.475 26.525 14.8333 24.5 14.8333C22.475 14.8333 20.8333 16.475 20.8333 18.5C20.8333 20.525 22.475 22.1667 24.5 22.1667C26.525 22.1667 28.1667 20.525 28.1667 18.5ZM30 18.5C30 21.5376 27.5376 24 24.5 24C21.4624 24 19 21.5376 19 18.5C19 15.4624 21.4624 13 24.5 13C27.5376 13 30 15.4624 30 18.5Z" fill="currentColor"/>
<path d="M23.5834 16.6667C23.5834 16.1604 23.9938 15.75 24.5 15.75C25.0063 15.75 25.4167 16.1604 25.4167 16.6667V17.7919L26.8069 18.6316C27.2402 18.8932 27.3799 19.4569 27.1184 19.8902C26.8569 20.3235 26.2932 20.4631 25.8598 20.2017L24.0265 19.0944L23.5834 18.8276V16.6667Z" fill="currentColor"/>
</svg>
