<?xml version="1.0" encoding="UTF-8" standalone="no"?>
<svg
   width="16"
   height="16"
   viewBox="0 0 16 16"
   version="1.1"
   id="svg139"
   sodipodi:docname="bi--calendar2-week.svg"
   inkscape:version="1.2.2 (b0a8486541, 2022-12-01)"
   xmlns:inkscape="http://www.inkscape.org/namespaces/inkscape"
   xmlns:sodipodi="http://sodipodi.sourceforge.net/DTD/sodipodi-0.dtd"
   xmlns="http://www.w3.org/2000/svg"
   xmlns:svg="http://www.w3.org/2000/svg">
  <defs
     id="defs143" />
  <sodipodi:namedview
     id="namedview141"
     pagecolor="#ffffff"
     bordercolor="#000000"
     borderopacity="0.25"
     inkscape:showpageshadow="2"
     inkscape:pageopacity="0.0"
     inkscape:pagecheckerboard="0"
     inkscape:deskcolor="#d1d1d1"
     showgrid="false"
     inkscape:zoom="26.65625"
     inkscape:cx="-1.8382181"
     inkscape:cy="10.747948"
     inkscape:window-width="1920"
     inkscape:window-height="1008"
     inkscape:window-x="0"
     inkscape:window-y="0"
     inkscape:window-maximized="1"
     inkscape:current-layer="svg139" />
  <g
     fill="currentColor"
     id="g137"
     transform="matrix(0.75615475,0,0,0.75615475,1.950762,1.950762)">
    <path
       d="M 3.5,0 A 0.5,0.5 0 0 1 4,0.5 V 1 h 8 V 0.5 a 0.5,0.5 0 0 1 1,0 V 1 h 1 a 2,2 0 0 1 2,2 v 11 a 2,2 0 0 1 -2,2 H 2 A 2,2 0 0 1 0,14 V 3 A 2,2 0 0 1 2,1 H 3 V 0.5 A 0.5,0.5 0 0 1 3.5,0 M 2,2 A 1,1 0 0 0 1,3 v 11 a 1,1 0 0 0 1,1 h 12 a 1,1 0 0 0 1,-1 V 3 A 1,1 0 0 0 14,2 Z"
       id="path133" />
    <path
       d="M 2.5,4 A 0.5,0.5 0 0 1 3,3.5 H 13 A 0.5,0.5 0 0 1 13.5,4 V 5 A 0.5,0.5 0 0 1 13,5.5 H 3 A 0.5,0.5 0 0 1 2.5,5 Z M 11,7.5 A 0.5,0.5 0 0 1 11.5,7 h 1 A 0.5,0.5 0 0 1 13,7.5 v 1 A 0.5,0.5 0 0 1 12.5,9 h -1 A 0.5,0.5 0 0 1 11,8.5 Z m -3,0 A 0.5,0.5 0 0 1 8.5,7 h 1 A 0.5,0.5 0 0 1 10,7.5 v 1 A 0.5,0.5 0 0 1 9.5,9 h -1 A 0.5,0.5 0 0 1 8,8.5 Z m -5,3 A 0.5,0.5 0 0 1 3.5,10 h 1 A 0.5,0.5 0 0 1 5,10.5 v 1 A 0.5,0.5 0 0 1 4.5,12 h -1 A 0.5,0.5 0 0 1 3,11.5 Z m 3,0 A 0.5,0.5 0 0 1 6.5,10 h 1 A 0.5,0.5 0 0 1 8,10.5 v 1 A 0.5,0.5 0 0 1 7.5,12 h -1 A 0.5,0.5 0 0 1 6,11.5 Z"
       id="path135" />
  </g>
</svg>
